<svg xmlns="http://www.w3.org/2000/svg" viewBox="0 0 512 512">
  <!-- التدرج اللوني للخلفية -->
  <defs>
    <linearGradient id="bgGradient" x1="0%" y1="0%" x2="100%" y2="100%">
      <stop offset="0%" style="stop-color:#FF4D00;stop-opacity:0.8"/>
      <stop offset="50%" style="stop-color:#1a1a1a;stop-opacity:1"/>
      <stop offset="100%" style="stop-color:#000000;stop-opacity:1"/>
    </linearGradient>
    
    <!-- تأثير الظل -->
    <filter id="shadow">
      <feGaussianBlur in="SourceAlpha" stdDeviation="3"/>
      <feOffset dx="0" dy="0"/>
      <feComponentTransfer>
        <feFuncA type="linear" slope="0.3"/>
      </feComponentTransfer>
      <feMerge>
        <feMergeNode/>
        <feMergeNode in="SourceGraphic"/>
      </feMerge>
    </filter>
  </defs>

  <!-- الخلفية الدائرية مع التدرج -->
  <circle cx="256" cy="256" r="256" fill="url(#bgGradient)"/>
  
  <!-- الشعار باللون الأبيض مع تأثير الظل -->
  <g transform="translate(128, 128) scale(1)" filter="url(#shadow)">
    <path fill="#ffffff" d="M215.82,0h-122.82v134.05h-52.11V0h0C18.3,0,0,18.3,0,40.88v174.93c0,22.58,18.3,40.88,40.88,40.88h0v-.02c.21,0,.43.02.64.02h92.35v-40.88H40.88v-40.88h215.82v-40.88h-122.82V40.88h81.94v51.01h40.88v-51.01h0c0-22.58-18.3-40.88-40.88-40.88Z"/>
    <path fill="#ffffff" d="M215.82,256.7h0c22.58,0,40.88-18.3,40.88-40.88h-40.88v40.88Z"/>
    <rect fill="#ffffff" x="154.4" y="215.82" width="40.88" height="40.88"/>
  </g>
</svg> 